<svg width="75" height="61" viewBox="0 0 75 61" fill="none" xmlns="http://www.w3.org/2000/svg">
<path d="M37.5419 61V59.0764C38.2015 59.0764 39.1439 59.0123 40.3689 58.884C41.594 58.7558 42.7248 58.4779 43.7613 58.0504V18.4879C42.7248 18.1887 41.6175 18.039 40.4396 18.039C39.3088 18.039 38.4135 18.0604 37.7539 18.1032L37.5419 16.1795C40.6516 15.8376 43.7613 15.517 46.8711 15.2177C49.9808 14.9185 53.0199 14.7689 55.9882 14.7689C58.8624 14.7689 61.4538 15.1964 63.7626 16.0513C66.1184 16.8635 68.1209 17.9749 69.77 19.3856C71.4662 20.7962 72.7619 22.3779 73.6572 24.1305C74.5524 25.8832 75 27.6785 75 29.5167C75 31.996 74.1754 34.3685 72.5263 36.6341C70.9244 38.8569 68.5921 40.6523 65.5295 42.0202C62.4668 43.3454 58.721 43.9439 54.292 43.8156L53.9386 41.7638C58.9331 41.4645 62.5846 40.289 64.8934 38.2371C67.2492 36.1852 68.4272 33.7273 68.4272 30.8632C68.4272 28.6831 67.9089 26.7381 66.8723 25.0282C65.8357 23.2756 64.4458 21.8435 62.7024 20.7321C60.9591 19.5779 58.9802 18.7871 56.7657 18.3597C54.5512 17.8894 52.266 17.8253 49.9101 18.1673V58.0504C51.0881 58.4779 52.3367 58.7558 53.6559 58.884C54.9752 59.0123 56.0118 59.0764 56.7657 59.0764V61H37.5419Z" fill="#DADADA"/>
<path d="M46.858 46.2311V44.3075C46.1984 44.3075 45.256 44.2434 44.031 44.1151C42.8059 43.9869 41.6751 43.709 40.6385 43.2816V3.71901C41.6751 3.41978 42.7824 3.27016 43.9603 3.27016C45.0911 3.27016 45.9863 3.29153 46.646 3.33428L46.858 1.41066C43.7483 1.06868 40.6385 0.748075 37.5288 0.448844C34.372 0.149615 31.4742 0 28.8357 0C25.6788 0 22.8283 0.341977 20.2839 1.02593C17.7396 1.66714 15.7136 2.79994 14.2058 4.42434C12.6981 6.04873 11.9442 8.27158 11.9442 11.0929C11.9442 12.5036 12.2976 13.9783 13.0043 15.5172C13.664 17.0134 14.7948 18.4668 16.3968 19.8775C17.9516 21.2881 20.0719 22.5064 22.7576 23.5323C21.9095 24.9003 20.8965 26.4392 19.7185 28.149C18.5406 29.8589 17.292 31.5688 15.9727 33.2787C14.6534 34.9886 13.3813 36.5702 12.1562 38.0236C10.9783 39.3488 9.87104 40.503 8.83447 41.4862C7.75077 42.4694 6.52573 43.3243 5.15933 44.051C3.74581 44.7777 2.02604 45.5044 0 46.2311L0.636081 48.0906C3.88716 47.8769 6.52572 47.5135 8.55176 47.0006C10.5307 46.4876 12.2033 45.7823 13.5697 44.8846C14.889 43.9441 16.1847 42.8327 17.4569 41.5503C18.2108 40.7808 19.0824 39.6908 20.0719 38.2801C21.0614 36.8695 22.0744 35.3519 23.111 33.7276C24.1475 32.0604 25.1606 30.4574 26.15 28.9185C27.0924 27.3796 27.8933 26.0972 28.553 25.0712C29.4482 25.2422 30.3906 25.4132 31.38 25.5842C32.3695 25.7124 33.406 25.8193 34.4897 25.9048V43.2816C33.406 43.709 32.2281 43.9869 30.956 44.1151C29.6838 44.2434 28.6943 44.3075 27.9876 44.3075V46.2311H46.858ZM34.4897 23.5965C30.8617 23.4682 27.8462 22.8484 25.4433 21.737C22.9932 20.6255 21.1556 19.2576 19.9305 17.6332C18.7055 16.0088 18.093 14.3417 18.093 12.6318C18.093 10.1097 18.7997 8.12197 20.2133 6.66856C21.6268 5.17241 23.5821 4.16785 26.0793 3.65489C28.5294 3.09917 31.3329 3.01368 34.4897 3.3984V23.5965Z" fill="#DADADA"/>
</svg>
