<svg width="260" height="260" viewBox="0 0 260 260" fill="none" xmlns="http://www.w3.org/2000/svg">
<path d="M202.617 195.102C191.395 175.602 170.32 162.5 146.25 162.5H113.75C89.6797 162.5 68.6055 175.602 57.3828 195.102C75.2578 215.008 101.156 227.5 130 227.5C158.844 227.5 184.742 214.957 202.617 195.102ZM0 130C0 95.5219 13.6964 62.4558 38.0761 38.0761C62.4558 13.6964 95.5219 0 130 0C164.478 0 197.544 13.6964 221.924 38.0761C246.304 62.4558 260 95.5219 260 130C260 164.478 246.304 197.544 221.924 221.924C197.544 246.304 164.478 260 130 260C95.5219 260 62.4558 246.304 38.0761 221.924C13.6964 197.544 0 164.478 0 130ZM130 138.125C139.697 138.125 148.997 134.273 155.854 127.416C162.71 120.559 166.562 111.259 166.562 101.562C166.562 91.8655 162.71 82.5657 155.854 75.7089C148.997 68.8521 139.697 65 130 65C120.303 65 111.003 68.8521 104.146 75.7089C97.2896 82.5657 93.4375 91.8655 93.4375 101.562C93.4375 111.259 97.2896 120.559 104.146 127.416C111.003 134.273 120.303 138.125 130 138.125Z" fill="#025D59"/>
</svg>
